<svg xmlns="http://www.w3.org/2000/svg" xmlns:xlink="http://www.w3.org/1999/xlink" width="266.677" height="95.144" viewBox="0 0 266.677 95.144">
  <defs>
    <clipPath id="clip-path">
      <rect id="Rectangle_32" data-name="Rectangle 32" width="266.677" height="95.144" fill="none"/>
    </clipPath>
  </defs>
  <g id="Group_29" data-name="Group 29" clip-path="url(#clip-path)">
    <path id="Path_23" data-name="Path 23" d="M42.387,48.744a1.494,1.494,0,0,1-1.49,0L26.275,40.3a.107.107,0,0,0-.161.091L25.982,52.68a.107.107,0,0,1-.194.061L21.794,47.18a.106.106,0,0,0-.1-.043L17.6,47.59a.107.107,0,0,1-.119-.106v-12.2a.106.106,0,0,0-.053-.093L.161,25.224A.107.107,0,0,0,0,25.316v44.9a2.445,2.445,0,0,0,1.223,2.117L39.937,94.687a3.41,3.41,0,0,0,3.41,0l26.186-15.12a.107.107,0,0,0,.054-.093V64.391a1.081,1.081,0,0,1,.536-.935l5.2-3.026a.725.725,0,0,1,1.089.626V75.409a.107.107,0,0,0,.161.093l5.49-3.169a2.435,2.435,0,0,0,1.218-2.109V25.316a.107.107,0,0,0-.161-.093ZM49.83,64.22a.771.771,0,0,1-.385.666l-4.159,2.4a.769.769,0,0,1-1.152-.666V53.637a.763.763,0,0,1,.385-.664l4.156-2.4a.769.769,0,0,1,1.154.664Zm7.283-4.091a.759.759,0,0,1-.379.661L52.564,63.2a.761.761,0,0,1-1.143-.659v-13a.76.76,0,0,1,.379-.661l4.17-2.406a.761.761,0,0,1,1.143.661Zm7.285-4.1a.773.773,0,0,1-.382.666l-4.159,2.4a.769.769,0,0,1-1.152-.667V45.449a.774.774,0,0,1,.382-.666l4.159-2.4a.768.768,0,0,1,1.151.667Zm7.286-4.1a.786.786,0,0,1-.39.678l-4.135,2.387a.781.781,0,0,1-1.171-.677V41.361a.781.781,0,0,1,.39-.675L70.514,38.3a.78.78,0,0,1,1.17.675ZM66.242,13.709a.109.109,0,0,0-.107,0L26.155,36.79v0L40.9,45.3a1.494,1.494,0,0,0,1.49,0L81.516,22.712a.107.107,0,0,0,0-.185ZM40.041.429,1.767,22.527a.107.107,0,0,0,0,.185l15.664,9.043a.109.109,0,0,0,.107,0L57.359,8.764a.107.107,0,0,0,0-.185L43.242.429a3.2,3.2,0,0,0-3.2,0" transform="translate(0 0)" fill="#161615"/>
    <path id="Path_24" data-name="Path 24" d="M173.878,82.232l6.175-35.362h4.912L178.79,82.232Zm10.805-43.712a3.479,3.479,0,0,1-3.579-3.579,3.329,3.329,0,0,1,1.017-2.561,3.521,3.521,0,0,1,2.491-.947,3.647,3.647,0,0,1,2.526.947,3.274,3.274,0,0,1,1.053,2.561,3.534,3.534,0,0,1-3.508,3.579" transform="translate(-62.679 -11.331)" fill="#161615"/>
    <path id="Path_25" data-name="Path 25" d="M197.9,83.181l8.63-49.114h19.085a18.587,18.587,0,0,1,8.946,1.894,11.657,11.657,0,0,1,5.052,5.087,14.487,14.487,0,0,1,1.439,7.051,16.546,16.546,0,0,1-2.878,8.911,17.678,17.678,0,0,1-7.261,6,25.116,25.116,0,0,1-10.7,2.14h-8.559l-3.228,18.032ZM213.13,56.73h7.788a9.644,9.644,0,0,0,6.737-2.175,7.936,7.936,0,0,0,2.525-5.824,5.465,5.465,0,0,0-1.4-4.49q-1.614-1.614-5.331-1.614h-7.86Z" transform="translate(-71.34 -12.28)" fill="#161615"/>
    <path id="Path_26" data-name="Path 26" d="M291.568,83.549a21.5,21.5,0,0,1-11.261-2.877,19.131,19.131,0,0,1-7.368-7.928,22.5,22.5,0,0,1-2.21-11.577,29.716,29.716,0,0,1,2.526-11.156A28.977,28.977,0,0,1,288.69,34.926a28.582,28.582,0,0,1,11.157-2.175,21.332,21.332,0,0,1,11.226,2.877,19.208,19.208,0,0,1,7.331,7.928,22.336,22.336,0,0,1,2.21,11.507,29.369,29.369,0,0,1-18,26.312,28.173,28.173,0,0,1-11.051,2.175m1.333-9.473a15.217,15.217,0,0,0,6.42-1.368,16.7,16.7,0,0,0,5.3-3.86,19.141,19.141,0,0,0,3.683-5.823,20.942,20.942,0,0,0,1.509-7.261,17.051,17.051,0,0,0-.982-7.122,9.494,9.494,0,0,0-3.789-4.7,12.107,12.107,0,0,0-6.6-1.649,15.556,15.556,0,0,0-6.42,1.333,16.235,16.235,0,0,0-5.3,3.824,19.263,19.263,0,0,0-3.684,5.789,20.632,20.632,0,0,0-1.509,7.227,16.5,16.5,0,0,0,1.053,7.191,10,10,0,0,0,3.894,4.736,11.67,11.67,0,0,0,6.42,1.684" transform="translate(-97.576 -11.806)" fill="#161615"/>
    <path id="Path_27" data-name="Path 27" d="M372,83.549a22.239,22.239,0,0,1-9.367-1.825,12.212,12.212,0,0,1-5.859-5.332,13.4,13.4,0,0,1-1.122-8.56h11.157a6.518,6.518,0,0,0,.455,3.683,4.943,4.943,0,0,0,2.351,2.386,8.205,8.205,0,0,0,3.719.807,9.053,9.053,0,0,0,3.789-.737,6.151,6.151,0,0,0,2.561-2.105,5.876,5.876,0,0,0,1.017-3.193,4.363,4.363,0,0,0-.455-2.281,5.5,5.5,0,0,0-1.58-1.824,12.669,12.669,0,0,0-2.421-1.438q-1.368-.632-2.981-1.228t-3.3-1.158a17.314,17.314,0,0,1-7.578-4.771,10.315,10.315,0,0,1-2.385-7.507,14.826,14.826,0,0,1,2.807-8.314,16.853,16.853,0,0,1,6.98-5.472,24.24,24.24,0,0,1,9.858-1.929,20.089,20.089,0,0,1,8.525,1.649,11.221,11.221,0,0,1,5.3,4.876,13.084,13.084,0,0,1,1.193,7.928h-11.3a4.728,4.728,0,0,0-.386-3.017,4.445,4.445,0,0,0-2-1.929,6.983,6.983,0,0,0-3.157-.666,8.028,8.028,0,0,0-3.263.631,5.356,5.356,0,0,0-2.28,1.824,5.142,5.142,0,0,0-.913,2.807,3.905,3.905,0,0,0,.386,2.07,4.738,4.738,0,0,0,1.3,1.543,11.591,11.591,0,0,0,2.034,1.263,25.176,25.176,0,0,0,2.631,1.122q1.437.527,2.981,1.088a27.056,27.056,0,0,1,4.562,2.034,17.991,17.991,0,0,1,3.719,2.772,10.47,10.47,0,0,1,2.454,3.754,12.023,12.023,0,0,1,.7,4.981,14.629,14.629,0,0,1-2.771,8.385,17.554,17.554,0,0,1-7.122,5.648A24.586,24.586,0,0,1,372,83.549" transform="translate(-128.125 -11.806)" fill="#161615"/>
  </g>
</svg>
